<mxfile host="app.diagrams.net" modified="2023-04-19T12:52:40.750Z" agent="Mozilla/5.0 (Windows NT 10.0; Win64; x64) AppleWebKit/537.36 (KHTML, like Gecko) Chrome/112.0.0.0 Safari/537.36" version="21.2.0" etag="MEDpL7238xLOd7LEp9Xz" type="github">
  <diagram name="PÃ¡gina-1" id="2dMsffiaz_8p0siwgk0X">
    <mxGraphModel>
      <root>
        <mxCell id="0" />
        <mxCell id="1" parent="0" />
      </root>
    </mxGraphModel>
  </diagram>
</mxfile>
